<?xml version="1.0" standalone="no"?>
<!DOCTYPE svg PUBLIC "-//W3C//DTD SVG 20010904//EN"
 "http://www.w3.org/TR/2001/REC-SVG-20010904/DTD/svg10.dtd">
<svg version="1.0" xmlns="http://www.w3.org/2000/svg"
 width="720.000000pt" height="720.000000pt" viewBox="0 0 720.000000 720.000000"
 preserveAspectRatio="xMidYMid meet">
<metadata>
Created by potrace 1.14, written by Peter Selinger 2001-2017
</metadata>
<g transform="translate(0.000000,720.000000) scale(0.100000,-0.100000)"
fill="#000000" stroke="none">
<path d="M3198 6436 c-51 -14 -63 -21 -121 -75 -66 -61 -75 -91 -131 -423
l-51 -309 -113 -45 c-103 -41 -115 -44 -135 -31 -12 8 -127 89 -255 181 -258
183 -300 204 -399 192 -98 -11 -131 -37 -414 -323 -243 -245 -268 -273 -284
-322 -21 -65 -17 -169 10 -221 10 -19 94 -145 188 -279 159 -227 170 -245 159
-270 -6 -14 -27 -67 -47 -116 l-37 -91 -296 -48 c-170 -28 -317 -57 -345 -69
-56 -23 -139 -109 -159 -164 -10 -29 -13 -129 -13 -428 0 -386 0 -391 23 -436
28 -58 81 -113 134 -140 28 -14 145 -40 342 -75 166 -30 304 -54 307 -54 4 0
17 -28 29 -62 12 -35 33 -84 46 -110 13 -26 24 -51 24 -56 0 -5 -77 -117 -171
-248 -94 -132 -180 -257 -192 -279 -28 -54 -29 -161 -3 -230 16 -42 60 -91
280 -313 305 -308 317 -317 446 -317 106 0 95 -5 405 213 l240 169 65 -30 c36
-16 87 -37 114 -47 l49 -16 52 -310 c36 -213 59 -323 74 -352 27 -53 82 -106
140 -134 46 -23 50 -23 441 -23 390 0 396 0 441 23 62 30 117 86 144 147 15
32 41 156 76 352 51 290 53 302 76 308 14 3 65 23 115 45 l90 39 247 -173
c135 -95 262 -182 281 -192 54 -29 190 -27 252 5 32 16 131 109 311 290 297
299 303 307 301 436 0 51 -6 81 -22 111 -11 23 -97 146 -190 275 -92 129 -171
239 -175 246 -4 7 3 34 16 60 14 26 35 76 47 111 12 34 28 62 34 62 6 0 146
24 311 54 193 34 315 61 340 74 54 27 110 85 137 141 23 45 23 51 23 441 0
391 0 395 -23 441 -31 63 -86 117 -146 144 -35 16 -146 38 -354 71 l-302 49
-11 35 c-7 19 -27 70 -46 112 l-34 78 174 247 c96 137 183 264 193 283 29 54
27 190 -5 252 -16 31 -109 132 -285 307 -277 276 -303 296 -404 308 -95 11
-138 -11 -417 -211 l-256 -183 -89 38 c-49 21 -100 41 -114 45 -14 3 -26 9
-26 13 0 3 -24 143 -54 311 -35 198 -61 320 -74 345 -27 53 -84 109 -141 137
-45 23 -51 23 -421 25 -281 2 -387 -1 -422 -11z m686 -438 c9 -51 38 -216 64
-367 33 -190 53 -277 63 -282 8 -5 68 -25 134 -46 70 -22 183 -69 271 -113
l152 -76 268 193 c148 107 286 205 307 220 l38 27 185 -185 c101 -101 184
-188 184 -194 0 -5 -96 -147 -214 -315 l-214 -305 53 -100 c65 -121 115 -242
146 -352 l23 -81 56 -26 c41 -19 132 -37 370 -75 173 -28 318 -51 323 -51 4 0
7 -121 7 -270 0 -148 -3 -270 -7 -270 -8 0 -622 -107 -689 -121 l-50 -10 -24
-82 c-36 -126 -78 -231 -146 -363 l-62 -120 219 -304 c121 -167 219 -306 219
-309 0 -10 -365 -371 -375 -371 -5 0 -147 96 -313 213 l-304 213 -151 -76
c-90 -45 -201 -92 -272 -114 -66 -20 -125 -39 -132 -41 -7 -2 -15 -14 -18 -27
-7 -32 -125 -703 -125 -711 0 -4 -121 -7 -270 -7 -148 0 -270 3 -270 6 0 14
-120 728 -123 731 -2 1 -49 16 -105 33 -118 35 -257 93 -374 156 -45 24 -88
42 -95 40 -6 -3 -141 -96 -300 -207 -158 -111 -294 -204 -301 -207 -18 -7
-384 358 -377 376 3 8 99 145 215 307 l210 292 -75 149 c-64 129 -155 369
-155 409 0 8 -21 18 -52 24 -64 13 -675 121 -682 121 -4 0 -6 122 -6 270 0
149 3 270 6 270 9 0 674 109 705 115 22 5 28 16 49 88 34 121 94 269 156 385
30 56 52 107 48 113 -3 6 -97 140 -207 298 -110 157 -202 293 -204 301 -2 9
70 88 181 200 l185 184 28 -20 c15 -11 153 -109 305 -218 l278 -198 127 65
c131 66 242 110 371 148 57 16 73 26 77 42 6 29 115 700 115 710 0 4 121 7
269 7 l269 0 16 -92z"/>
<path d="M3515 4583 c-244 -29 -447 -124 -610 -288 -388 -387 -388 -1013 0
-1400 386 -387 1014 -387 1400 0 480 479 348 1282 -260 1587 -160 81 -369 121
-530 101z m228 -369 c123 -27 210 -77 307 -174 140 -140 198 -288 186 -480
-10 -172 -61 -285 -186 -410 -65 -66 -103 -94 -160 -122 -185 -89 -388 -90
-569 -1 -58 28 -96 58 -161 123 -125 125 -176 238 -186 410 -7 119 11 209 62
317 53 109 177 233 286 286 132 65 278 83 421 51z"/>
</g>
</svg>
