<?xml version="1.0" standalone="no"?>
<!DOCTYPE svg PUBLIC "-//W3C//DTD SVG 20010904//EN"
 "http://www.w3.org/TR/2001/REC-SVG-20010904/DTD/svg10.dtd">
<svg version="1.0" xmlns="http://www.w3.org/2000/svg"
 width="2048.000000pt" height="2048.000000pt" viewBox="0 0 2048.000000 2048.000000"
 preserveAspectRatio="xMidYMid meet">
<metadata>
Created by potrace 1.14, written by Peter Selinger 2001-2017
</metadata>
<g transform="translate(0.000000,2048.000000) scale(0.100000,-0.100000)"
fill="#000000" stroke="none">
<path d="M8985 20470 c-226 -21 -419 -101 -589 -246 -130 -111 -211 -216 -281
-368 -51 -110 -74 -204 -120 -486 -50 -315 -131 -809 -164 -1010 -16 -96 -53
-322 -83 -503 -48 -294 -55 -328 -73 -333 -109 -31 -596 -229 -728 -295 l-58
-30 -202 144 c-111 79 -224 160 -252 179 -48 34 -293 208 -425 303 -560 402
-889 632 -950 664 -362 188 -802 152 -1126 -93 -32 -24 -453 -440 -936 -923
-939 -941 -944 -946 -1017 -1120 -122 -287 -112 -628 25 -893 36 -69 407 -607
1086 -1575 47 -66 108 -154 137 -196 l53 -76 -51 -106 c-68 -144 -167 -381
-231 -552 -28 -77 -55 -147 -59 -155 -6 -10 -52 -22 -147 -37 -415 -67 -600
-98 -714 -118 -92 -16 -266 -45 -450 -75 -356 -57 -785 -133 -853 -150 -284
-74 -540 -292 -672 -573 -55 -118 -82 -222 -95 -368 -12 -144 -13 -2282 -1
-2434 13 -151 44 -271 102 -390 126 -261 343 -454 614 -545 80 -27 190 -50
490 -100 61 -10 189 -33 285 -50 96 -17 222 -40 280 -50 58 -10 184 -33 280
-50 96 -17 222 -40 280 -50 58 -10 170 -30 250 -44 80 -15 189 -34 244 -44
l98 -18 38 -104 c65 -185 132 -346 242 -587 56 -124 59 -134 46 -156 -9 -12
-292 -409 -629 -882 -365 -512 -629 -891 -651 -935 -99 -202 -130 -417 -92
-641 27 -162 81 -295 175 -430 59 -85 1702 -1738 1831 -1843 156 -125 366
-209 563 -224 267 -21 480 36 705 190 52 35 180 124 285 198 104 73 219 153
255 178 36 25 148 104 250 175 101 72 214 150 250 175 36 25 148 104 250 175
101 72 214 150 250 176 36 25 89 62 119 83 33 23 58 35 65 29 47 -37 741 -321
783 -321 7 0 14 -4 18 -9 3 -6 84 -481 180 -1057 96 -576 184 -1081 195 -1123
84 -304 326 -572 625 -691 39 -16 118 -39 176 -52 l104 -23 1260 0 1260 0 98
22 c178 41 327 113 460 225 212 178 324 380 377 687 17 97 30 171 106 596 14
77 34 190 44 250 11 61 30 173 44 250 14 77 32 181 41 230 9 50 27 152 40 228
14 75 36 201 50 280 14 78 28 151 30 163 4 16 32 31 132 69 218 82 466 187
596 252 49 24 93 40 100 36 7 -4 73 -50 147 -102 74 -52 164 -115 200 -140 36
-24 146 -101 245 -171 99 -70 266 -187 370 -260 105 -73 222 -156 262 -184
592 -416 607 -427 733 -474 101 -39 155 -51 264 -61 185 -17 415 23 570 101
156 78 176 96 1059 977 472 471 885 888 916 926 120 145 185 284 220 468 49
251 7 512 -115 720 -36 61 -182 266 -644 907 -145 201 -324 448 -397 550 -73
102 -160 222 -193 267 l-60 83 46 97 c65 139 158 362 225 542 32 84 60 156 63
159 3 2 40 11 83 19 43 7 220 38 393 69 173 30 378 66 455 80 77 14 190 33
250 44 61 10 189 33 285 50 96 17 225 40 285 50 260 44 405 73 480 97 355 114
625 414 708 787 l22 101 0 1260 c0 1183 -1 1265 -18 1345 -81 377 -323 665
-669 794 -90 34 -157 48 -453 96 -137 22 -360 59 -495 81 -135 22 -342 55
-460 75 -118 19 -253 41 -300 49 -201 35 -519 85 -542 85 -15 0 -29 7 -33 18
-3 9 -28 76 -55 147 -61 162 -132 335 -210 506 -33 73 -59 138 -57 144 3 5 71
105 152 220 82 116 175 248 207 295 33 47 92 131 131 187 617 880 747 1067
783 1131 49 86 98 223 115 326 7 43 10 126 6 220 -5 169 -28 268 -92 404 -78
166 -86 175 -1009 1098 -485 485 -906 900 -936 922 -317 233 -733 275 -1083
109 -65 -31 -196 -118 -447 -299 -420 -301 -1220 -876 -1338 -961 l-83 -60
-72 33 c-253 115 -520 225 -678 281 l-66 23 -37 210 c-20 116 -59 339 -87 496
-27 157 -61 348 -74 425 -13 77 -38 219 -55 315 -17 96 -40 225 -50 285 -69
409 -95 516 -152 630 -145 288 -407 492 -733 568 -89 20 -109 21 -1300 23
-665 1 -1250 -2 -1300 -6z m2194 -1287 c5 -10 18 -72 29 -138 12 -66 37 -212
57 -325 20 -113 43 -241 50 -285 8 -44 30 -172 50 -285 20 -113 45 -254 55
-315 10 -60 33 -189 50 -285 17 -96 40 -224 50 -285 10 -60 33 -189 50 -285
17 -96 38 -215 46 -265 8 -49 19 -111 25 -137 l11 -46 81 -25 c45 -14 132 -39
192 -57 582 -169 1039 -362 1600 -677 l160 -90 72 51 c93 67 628 451 1108 796
209 150 524 377 699 503 l319 229 673 -673 c371 -371 674 -679 674 -685 0 -13
-14 -33 -732 -1054 -156 -223 -305 -434 -330 -470 -25 -36 -120 -171 -211
-300 -91 -129 -191 -272 -222 -317 l-57 -82 30 -53 c16 -29 46 -84 67 -123 21
-38 65 -119 98 -180 68 -123 214 -422 259 -530 124 -297 222 -575 319 -912
l33 -112 164 -81 c176 -87 187 -90 497 -139 113 -18 382 -61 960 -156 83 -13
303 -49 490 -80 187 -30 397 -65 468 -77 l127 -21 0 -958 c0 -903 -1 -958 -18
-963 -9 -3 -82 -17 -162 -30 -80 -14 -224 -39 -320 -56 -96 -17 -211 -38 -255
-45 -87 -15 -393 -69 -625 -110 -80 -15 -194 -35 -255 -45 -60 -10 -173 -30
-250 -44 -77 -13 -283 -50 -459 -80 -175 -31 -322 -58 -326 -61 -4 -3 -10 -15
-13 -27 -18 -84 -184 -629 -212 -698 -8 -19 -39 -100 -69 -180 -30 -80 -71
-181 -91 -225 -20 -44 -41 -93 -47 -110 -15 -40 -159 -327 -218 -435 -144
-260 -190 -352 -183 -363 4 -7 88 -124 188 -262 168 -231 292 -405 356 -494
27 -38 229 -318 564 -781 109 -151 214 -298 234 -326 20 -27 81 -112 135 -188
l99 -138 -674 -674 c-371 -371 -679 -674 -684 -674 -11 0 -72 42 -405 276
-102 72 -383 269 -625 439 -242 170 -460 323 -485 340 -25 17 -128 90 -230
161 -102 72 -216 152 -255 179 -38 26 -104 72 -145 101 l-75 52 -169 -94
c-185 -103 -502 -268 -581 -301 -27 -12 -84 -37 -125 -56 -92 -43 -140 -63
-205 -87 -27 -10 -86 -33 -130 -50 -86 -33 -373 -128 -545 -180 -58 -17 -143
-44 -190 -58 -97 -31 -84 -7 -120 -217 -10 -60 -33 -189 -50 -285 -17 -96 -43
-238 -56 -315 -14 -77 -36 -201 -49 -275 -48 -272 -87 -488 -105 -590 -20
-117 -62 -351 -90 -510 -10 -58 -33 -186 -50 -284 -17 -99 -36 -188 -41 -198
-9 -17 -55 -18 -952 -18 -518 0 -947 4 -954 8 -7 4 -101 547 -228 1307 -119
715 -219 1311 -224 1325 -7 22 -23 29 -142 62 -696 194 -1123 369 -1733 709
-87 49 -162 89 -167 89 -5 0 -228 -154 -496 -342 -448 -313 -1271 -890 -1421
-995 -34 -24 -110 -78 -169 -119 -58 -41 -111 -74 -117 -74 -6 0 -314 303
-685 674 l-674 674 674 943 c371 519 695 973 721 1009 95 131 158 226 158 235
0 6 -48 96 -106 200 -245 441 -456 913 -564 1260 -49 156 -75 242 -115 385
-25 85 -49 164 -54 176 -10 24 -8 23 -246 65 -310 55 -379 67 -495 87 -63 12
-194 35 -290 52 -96 17 -222 40 -280 50 -58 10 -184 33 -280 50 -96 17 -238
43 -315 56 -77 14 -205 36 -285 51 -80 14 -212 37 -295 52 l-150 26 -3 963
c-1 543 2 962 7 962 9 0 607 98 766 126 50 8 488 81 974 162 665 111 886 151
892 162 4 8 36 112 70 230 180 631 353 1042 697 1659 91 163 90 137 12 246
-20 28 -61 86 -92 130 -30 44 -170 243 -309 442 -140 200 -322 461 -406 580
-83 120 -265 379 -402 577 -138 197 -251 364 -251 370 0 6 303 314 673 684
l674 674 964 -689 c530 -378 982 -701 1004 -716 22 -15 81 -57 130 -92 l90
-63 105 55 c58 31 173 93 255 138 470 258 853 408 1543 605 73 21 135 40 138
42 4 4 37 202 103 608 17 102 53 322 80 490 107 652 142 863 176 1075 64 395
78 470 89 477 6 4 435 8 953 8 887 0 943 -1 952 -17z"/>
<path d="M10050 13794 c-19 -2 -107 -11 -195 -20 -397 -39 -794 -152 -1173
-334 -702 -338 -1290 -923 -1634 -1625 -305 -624 -418 -1279 -343 -1977 70
-641 333 -1288 724 -1783 496 -628 1151 -1058 1916 -1260 423 -111 819 -136
1335 -84 236 23 563 101 778 184 34 14 92 36 130 51 195 76 493 237 680 368
652 456 1128 1101 1365 1851 243 768 217 1609 -75 2365 -91 235 -274 577 -409
764 -307 424 -675 762 -1111 1019 -108 64 -346 181 -453 222 -38 15 -97 38
-130 51 -233 90 -518 156 -815 188 -143 15 -522 28 -590 20z m578 -1308 c74
-14 175 -37 226 -51 629 -171 1169 -631 1455 -1238 228 -485 272 -1068 121
-1589 -218 -751 -832 -1360 -1576 -1563 -260 -71 -575 -100 -820 -77 -533 52
-1026 284 -1403 662 -413 413 -648 950 -668 1525 -19 540 140 1036 470 1473
88 116 282 313 400 405 278 217 617 374 953 441 184 37 282 45 509 41 163 -3
225 -8 333 -29z"/>
</g>
</svg>
