<?xml version="1.0" encoding="UTF-8" standalone="no"?>
<!-- Created with Inkscape (http://www.inkscape.org/) -->

<svg
   version="1.1"
   id="svg2"
   width="7in"
   height="7in"
   viewBox="0 0 672 672"
   sodipodi:docname="Snowflake.svg"
   inkscape:version="1.1.1 (3bf5ae0d25, 2021-09-20)"
   xmlns:inkscape="http://www.inkscape.org/namespaces/inkscape"
   xmlns:sodipodi="http://sodipodi.sourceforge.net/DTD/sodipodi-0.dtd"
   xmlns="http://www.w3.org/2000/svg"
   xmlns:svg="http://www.w3.org/2000/svg">
  <defs
     id="defs6" />
  <sodipodi:namedview
     id="namedview4"
     pagecolor="#ffffff"
     bordercolor="#666666"
     borderopacity="1.0"
     inkscape:pageshadow="2"
     inkscape:pageopacity="0.0"
     inkscape:pagecheckerboard="0"
     showgrid="false"
     units="in"
     inkscape:document-units="in"
     inkscape:zoom="0.7957512"
     inkscape:cx="319.82358"
     inkscape:cy="177.8194"
     inkscape:window-width="1920"
     inkscape:window-height="991"
     inkscape:window-x="-9"
     inkscape:window-y="-9"
     inkscape:window-maximized="1"
     inkscape:current-layer="g8" />
  <g
     inkscape:groupmode="layer"
     inkscape:label="Image"
     id="g8">
    <path
       style="fill:none;stroke:#ff0000;stroke-width:0.570734;stroke-miterlimit:4;stroke-dasharray:none;stroke-opacity:1"
       d="m 432.17796,252.10189 8.35962,5.08544 0.32973,-1.45297 c 0.1813,-0.79913 1.64173,-6.93317 3.24543,-13.63119 l 2.91577,-12.17822 -10.56387,-2.91625 c -5.81018,-1.60391 -11.81559,-3.2655 -13.34539,-3.69242 l -2.78144,-0.77621 0.43436,11.42435 0.4344,11.42441 1.30587,0.81383 c 0.71822,0.44757 5.06775,3.10222 9.66552,5.89923 z"
       id="path4245" />
    <path
       style="fill:none;stroke:#ff0000;stroke-width:0.51832;stroke-miterlimit:4;stroke-dasharray:none;stroke-opacity:1"
       d="m 420.08053,393.57547 c 0.17476,-0.62601 0.60156,-19.89153 0.46358,-20.92292 -0.0549,-0.41127 0.0545,-0.70879 0.31321,-0.8505 0.97589,-0.53454 17.61249,-11.16017 18.00663,-11.50057 0.2423,-0.20923 0.53134,-0.32894 0.64231,-0.26604 0.11097,0.063 1.5234,5.21535 3.13876,11.44978 4.10689,15.85029 3.95547,15.20246 3.61818,15.48116 -0.15995,0.13217 -6.01988,1.92743 -13.02201,3.98944 -7.00221,2.062 -12.78064,3.77611 -12.84096,3.80914 -0.25357,0.13882 -0.46783,-0.65868 -0.31964,-1.18955 z"
       id="path4239" />
    <path
       style="fill:none;stroke:#ff0000;stroke-width:0.51832;stroke-miterlimit:4;stroke-dasharray:none;stroke-opacity:1"
       d="m 291.67323,171.90663 c 0.15746,-0.16142 4.50129,-4.44384 9.65302,-9.51642 5.1517,-5.07263 9.48505,-9.34343 9.62965,-9.49069 0.1951,-0.19864 0.38652,-0.12583 0.74169,0.28206 0.26328,0.30237 4.80708,4.64974 10.0972,9.66077 5.29019,5.01104 9.52576,9.16377 9.41236,9.22823 -0.11435,0.0627 -4.56003,2.49818 -9.87911,5.41237 -8.51751,4.6609 -9.71443,5.27332 -10.02341,5.10616 -1.50152,-0.81165 -18.97496,-9.9552 -19.38867,-10.14575 -0.49105,-0.22621 -0.50865,-0.26511 -0.24302,-0.53741 z"
       id="path4235" />
    <path
       style="fill:none;stroke:#ff0000;stroke-width:0.51832;stroke-miterlimit:4;stroke-dasharray:none;stroke-opacity:1"
       d="m 350.80144,285.42869 c 0.0525,-0.0895 5.91019,-6.25204 13.01701,-13.69435 7.10678,-7.44232 13.18989,-13.84256 13.51805,-14.22276 l 0.59665,-0.69128 11.27144,-0.82982 c 6.1993,-0.45638 12.05279,-0.88815 13.00768,-0.95949 1.23052,-0.0919 1.76631,-0.0322 1.83943,0.20551 0.0964,0.31393 -14.09934,21.49103 -14.55459,21.71206 -0.74079,0.35957 -38.11207,9.19445 -38.34604,9.06525 -0.36954,-0.20405 -0.47233,-0.37603 -0.34964,-0.58512 z"
       id="path4231" />
    <path
       style="fill:none;stroke:#ff0000;stroke-width:0.51832;stroke-miterlimit:4;stroke-dasharray:none;stroke-opacity:1"
       d="m 350.13541,331.21956 c 0.20438,-0.19328 0.45322,-0.31101 0.55301,-0.26163 0.0997,0.0494 8.18013,2.02309 17.95636,4.38604 9.77619,2.36298 18.29387,4.42184 18.92814,4.57525 l 1.15326,0.27895 7.11764,10.39702 c 3.91475,5.71835 7.22681,10.60011 7.36019,10.84839 0.19648,0.36524 0.1523,0.4798 -0.23065,0.60051 -0.32667,0.10291 -24.92955,-1.56458 -25.73284,-1.74413 -0.0525,-0.012 -26.29568,-27.43069 -27.08494,-28.29835 -0.32229,-0.35435 -0.32585,-0.49304 -0.0201,-0.78205 z"
       id="path4227" />
    <path
       style="fill:none;stroke:#ff0000;stroke-width:0.51832;stroke-miterlimit:4;stroke-dasharray:none;stroke-opacity:1"
       d="m 305.56778,245.1163 c -2.98972,-10.10722 -5.51389,-18.52449 -5.60929,-18.70505 -0.0953,-0.18072 -0.0548,-0.51008 0.0897,-0.73231 0.14487,-0.22216 2.67443,-5.44977 5.6214,-11.61684 2.94693,-6.16706 5.51064,-11.2598 5.69708,-11.31719 0.2684,-0.0826 0.44929,0.1163 0.86848,0.95498 0.29127,0.58264 2.85959,5.83745 5.7075,11.67732 l 5.17802,10.61797 -5.50217,18.9686 c -4.20834,14.50816 -5.59795,18.9926 -5.90955,19.07059 -0.2241,0.0558 -0.47442,-0.0428 -0.55631,-0.2197 -0.082,-0.17694 -2.59508,-8.59115 -5.5848,-18.69837 z"
       id="path4223" />
    <path
       style="fill:none;stroke:#ff0000;stroke-width:0.51832;stroke-miterlimit:4;stroke-dasharray:none;stroke-opacity:1"
       d="m 331.57219,308.83053 c 0.16053,-0.4516 2.37772,-0.99775 29.66087,-7.30564 16.21805,-3.74962 29.65085,-6.86997 29.85058,-6.93412 0.20096,-0.0645 6.62296,2.90728 14.36885,6.64906 10.46468,5.05519 13.98862,6.85403 13.93828,7.11497 -0.0467,0.24269 -0.465,0.53293 -1.37059,0.95107 -0.71683,0.33105 -7.06553,3.45023 -14.10824,6.93161 l -12.80489,6.32983 -29.04529,-6.40428 c -15.97488,-3.52232 -29.40923,-6.50327 -29.85417,-6.62431 -0.77081,-0.20967 -0.80072,-0.24303 -0.6354,-0.70819 z"
       id="path4219" />
    <path
       style="fill:none;stroke:#ff0000;stroke-width:0.51832;stroke-miterlimit:4;stroke-dasharray:none;stroke-opacity:1"
       d="m 326.94443,272.78171 c 5.96561,-19.24471 11.33382,-36.54437 12.02156,-38.74089 l 0.41518,-1.32595 12.92286,-8.75065 c 8.18341,-5.54136 13.07719,-8.75458 13.34359,-8.76136 0.37142,-0.01 0.40108,0.28147 0.25301,2.48218 -0.0921,1.37115 -0.5659,8.35386 -1.05264,15.51718 l -0.88492,13.02425 -6.64403,7.18572 c -3.65414,3.95216 -13.01487,14.08133 -20.80153,22.50928 -9.57706,10.36582 -14.27559,15.31804 -14.52229,15.30648 -0.20059,-0.009 -0.43427,-0.0822 -0.51934,-0.16158 -0.085,-0.0796 2.37579,-8.30758 5.46855,-18.28466 z"
       id="path4215" />
    <path
       style="fill:none;stroke:#ff0000;stroke-width:0.51832;stroke-miterlimit:4;stroke-dasharray:none;stroke-opacity:1"
       d="m 338.7892,384.05231 c -0.19968,-0.70532 -4.28508,-13.68699 -9.07879,-28.84814 -4.79376,-15.16118 -8.77577,-27.78288 -8.84895,-28.04829 -0.0887,-0.3223 0.008,-0.55938 0.29027,-0.7138 0.40325,-0.22137 1.38658,0.80247 21.22362,22.09106 l 20.80023,22.32231 1.14591,15.09062 c 0.63025,8.2998 1.20213,15.30577 1.27085,15.56878 0.11628,0.44453 -0.31417,1.17924 -0.63575,1.08522 -0.16612,-0.0486 -25.79927,-17.15754 -25.80235,-17.22191 -5.6e-4,-0.0238 -0.16536,-0.62054 -0.365,-1.32585 z"
       id="path4211" />
    <path
       style="fill:none;stroke:#ff0000;stroke-width:0.51832;stroke-miterlimit:4;stroke-dasharray:none;stroke-opacity:1"
       d="m 259.6489,246.93177 c 0.0382,-0.15026 -0.42536,-7.00119 -1.02995,-15.22424 -0.96495,-13.12454 -1.09653,-16.49349 -0.63658,-16.30341 0.0639,0.0263 5.87323,3.92884 12.90975,8.67212 l 12.79363,8.62426 3.43466,10.99918 c 4.78436,15.3216 9.09044,29.10134 12.24197,39.17498 2.41104,7.70673 2.64822,8.60401 2.34884,8.88701 -0.18309,0.1732 -0.38626,0.29921 -0.45135,0.28017 -0.0651,-0.019 -9.31669,-9.97158 -20.55911,-22.1168 -11.24238,-12.14517 -20.59383,-22.2257 -20.78096,-22.40114 -0.18714,-0.17539 -0.30923,-0.44183 -0.27093,-0.59216 z"
       id="path4207" />
    <path
       style="fill:none;stroke:#ff0000;stroke-width:0.51832;stroke-miterlimit:4;stroke-dasharray:none;stroke-opacity:1"
       d="m 305.48225,403.49335 -5.49145,-11.35099 5.40038,-18.90312 c 3.26523,-11.42956 5.53877,-18.97899 5.75054,-19.09502 0.19258,-0.10571 0.43592,-0.1433 0.54062,-0.0839 0.1047,0.0595 2.72806,8.62565 5.82981,19.03611 l 5.63949,18.92811 -4.0608,8.53586 c -7.43214,15.62242 -7.06895,14.90684 -7.52225,14.81881 -0.22537,-0.0438 -0.45136,-0.182 -0.50231,-0.30719 -0.0509,-0.1252 -2.5638,-5.3356 -5.58404,-11.57863 z"
       id="path4203" />
    <path
       style="fill:none;stroke:#ff0000;stroke-width:0.51832;stroke-miterlimit:4;stroke-dasharray:none;stroke-opacity:1"
       d="m 219.41559,256.45639 c 0.0359,-0.12164 0.17648,-0.28181 0.31187,-0.35601 0.13545,-0.0741 5.99572,0.27469 13.02293,0.77531 l 12.77672,0.9102 13.64636,14.17503 c 7.5055,7.79628 13.66513,14.31238 13.68806,14.48024 0.023,0.16787 -0.13278,0.36526 -0.34613,0.43869 -0.21332,0.0734 -8.85771,-1.89194 -19.20969,-4.36748 -10.35192,-2.47558 -18.90933,-4.50858 -19.01641,-4.51792 -0.10689,-0.01 -3.25299,-4.45151 -6.99097,-9.87155 -3.73795,-5.42008 -7.05548,-10.21261 -7.37231,-10.65005 -0.31683,-0.43742 -0.54647,-0.89492 -0.51044,-1.01646 z"
       id="path4199" />
    <path
       style="fill:none;stroke:#ff0000;stroke-width:0.51832;stroke-miterlimit:4;stroke-dasharray:none;stroke-opacity:1"
       d="m 301.87828,441.19215 10.00755,-5.4719 1.59803,0.90431 c 0.8789,0.49737 5.31194,2.8586 9.85123,5.24717 4.53927,2.38855 8.23867,4.39286 8.22089,4.45397 -0.0513,0.17657 -18.85321,18.59272 -19.4324,19.03381 l -0.52184,0.39742 -9.79459,-9.39937 c -5.38703,-5.16966 -9.82637,-9.4653 -9.86524,-9.54588 -0.0388,-0.0805 4.4327,-2.60906 9.93671,-5.61892 z"
       id="path4195" />
    <path
       style="fill:none;stroke:#ff0000;stroke-width:0.51832;stroke-miterlimit:4;stroke-dasharray:none;stroke-opacity:1"
       d="m 179.65291,244.60367 c -1.81143,-7.15449 -3.29248,-13.03391 -3.29139,-13.0653 8.1e-4,-0.0311 0.68401,-0.21804 1.51749,-0.41471 0.8334,-0.19713 6.78209,-1.88475 13.2191,-3.75111 6.43698,-1.86633 11.81445,-3.33452 11.9499,-3.26259 0.13537,0.0719 0.22452,0.40824 0.19831,0.74711 -0.071,0.91296 -0.6245,19.95967 -0.60384,20.78024 l 0.0177,0.70359 -8.25517,5.10518 c -10.32253,6.3837 -11.01354,6.77815 -11.26605,6.43069 -0.10601,-0.1457 -1.67459,-6.11854 -3.486,-13.27305 z"
       id="path4191" />
    <path
       style="fill:none;stroke:#ff0000;stroke-width:0.51832;stroke-miterlimit:4;stroke-dasharray:none;stroke-opacity:1"
       d="m 258.69858,387.42802 c 0.50495,-8.29579 0.89419,-15.25801 0.86493,-15.47158 -0.029,-0.21357 0.0723,-0.45691 0.22519,-0.54077 0.15321,-0.0835 9.47458,-10.25475 20.71456,-22.60203 14.65278,-16.09636 20.54454,-22.44308 20.81891,-22.42657 0.21048,0.0134 0.4337,0.11605 0.49611,0.22974 0.0626,0.11362 -2.37106,8.41932 -5.4076,18.457 -3.03655,10.03776 -6.46198,21.38905 -7.61205,25.22513 -1.15009,3.83607 -2.62559,8.73065 -3.27887,10.87685 l -1.18784,3.90219 -12.85193,8.82097 c -7.06855,4.85149 -13.00851,8.84208 -13.19986,8.86797 -0.19129,0.0259 -0.38205,-0.0211 -0.42374,-0.10431 -0.0415,-0.0832 0.33728,-6.93881 0.84219,-15.2346 z"
       id="path4187" />
    <path
       style="fill:none;stroke:#ff0000;stroke-width:0.51832;stroke-miterlimit:4;stroke-dasharray:none;stroke-opacity:1"
       d="m 204.057,308.98332 c 0.30958,-0.28686 18.43359,-9.06506 27.23634,-13.1916 l 1.11547,-0.52285 9.43039,2.2098 c 5.18672,1.21541 18.57421,4.34681 29.75003,6.95867 19.17518,4.48145 20.31276,4.77757 20.19866,5.25796 -0.11601,0.4885 -0.1896,0.5233 -1.82277,0.86248 -0.93602,0.19439 -8.14233,1.76408 -16.01406,3.48819 -7.87171,1.72408 -20.6221,4.51528 -28.33406,6.20265 l -14.02188,3.06797 -6.38295,-3.18152 c -3.51061,-1.74981 -9.67908,-4.81958 -13.70773,-6.82176 -4.02866,-2.00208 -7.44399,-3.71048 -7.58966,-3.79647 -0.17067,-0.10053 -0.11996,-0.29044 0.1422,-0.53355 z"
       id="path4183" />
    <path
       style="fill:none;stroke:#ff0000;stroke-width:0.51832;stroke-miterlimit:4;stroke-dasharray:none;stroke-opacity:1"
       d="m 224.14932,356.91317 c 2.04457,-3.02357 5.32576,-7.86966 7.29159,-10.76904 l 3.57422,-5.27155 7.56,-1.855 c 4.15814,-1.01968 12.73525,-3.12867 19.06063,-4.68537 6.32533,-1.55669 11.62969,-2.7591 11.78747,-2.6721 0.15752,0.087 0.33327,0.24384 0.3901,0.34849 0.0922,0.16859 -26.69511,28.64369 -27.17548,28.88816 -0.10606,0.0541 -5.94492,0.5383 -12.97531,1.07631 -8.32629,0.63719 -12.8606,0.88397 -13.0065,0.70788 -0.16554,-0.1998 0.74693,-1.70636 3.49327,-5.76783 z"
       id="path4179" />
    <path
       style="fill:none;stroke:#ff0000;stroke-width:0.51832;stroke-miterlimit:4;stroke-dasharray:none;stroke-opacity:1"
       d="m 177.96736,385.34872 c 0.48724,-1.82201 5.90044,-23.74226 6.05378,-24.51429 0.0488,-0.24635 0.86701,0.23703 9.43096,5.5723 4.63878,2.88992 8.72692,5.39497 9.08476,5.56681 0.76849,0.36899 0.93526,0.61796 0.812,1.21215 -0.0503,0.24185 0.0659,5.05369 0.25839,10.69293 0.19233,5.63924 0.28461,10.51642 0.2051,10.83815 -0.14397,0.58233 -0.18741,0.57261 -9.70382,-2.17493 -5.25755,-1.51796 -11.18576,-3.21305 -13.17369,-3.76684 l -3.61448,-1.00702 z"
       id="path4175" />
    <path
       id="path152"
       style="fill:none;fill-opacity:1;fill-rule:evenodd;stroke:#ff0000;stroke-width:0.779249;stroke-opacity:1"
       d="M 311.23047 77.353516 A 31.584036 22.311659 0 0 0 279.64648 99.664062 A 31.584036 22.311659 0 0 0 295.29688 118.91992 A 191.38105 191.84012 45.023882 0 0 120.08008 309.32617 A 191.38105 191.84012 45.023882 0 0 311.23047 500.93555 A 191.38105 191.84012 45.023882 0 0 503.30078 309.32617 A 191.38105 191.84012 45.023882 0 0 327.40234 118.80664 A 31.584036 22.311659 0 0 0 342.81445 99.664062 A 31.584036 22.311659 0 0 0 311.23047 77.353516 z " />
    <path
       id="ellipse1386"
       style="fill:none;fill-opacity:1;fill-rule:evenodd;stroke:#ff0000;stroke-width:0.684121;stroke-opacity:1"
       d="m 323.75455,141.56053 c 2.99573,2.7214 3.29121,2.9112 7.07649,6.39062 17.98591,16.53272 18.50766,17.03155 18.46158,17.66016 -0.0452,0.61228 -0.59343,5.06413 -3.70286,30.05273 -1.60581,12.90479 -1.5411,12.332 -1.41244,12.36914 0.0577,0.0165 7.49891,-3.28289 16.53514,-7.33398 9.03636,-4.05106 16.93552,-7.56448 17.55387,-7.80664 l 1.1241,-0.44141 1.71144,18.54102 c 0.94139,10.19689 1.76532,18.58114 1.83231,18.63281 0.0668,0.0516 7.72986,-5.66034 17.02846,-12.69336 9.29859,-7.03302 17.13763,-12.88662 17.41983,-13.00975 0.39589,-0.17303 4.48089,1.06391 17.90303,5.42577 6.06574,1.97126 10.42709,3.38356 15.43722,5.00781 A 168.01791,168.42094 45.033607 0 0 323.75455,141.56053 Z m -25.0891,0.50586 a 168.01791,168.42094 45.033607 0 0 -125.61968,72.77929 c 2.96117,-0.92399 4.37775,-1.38389 8.58063,-2.68358 13.37374,-4.13572 24.4859,-7.48564 24.69364,-7.44531 0.20764,0.0403 0.42627,0.16138 0.48566,0.26952 0.11876,0.21616 34.05473,25.98343 34.08059,25.87695 0.0205,-0.0846 2.08952,-23.49781 2.81862,-31.90039 0.30557,-3.52107 0.65306,-6.45765 0.7715,-6.52733 0.11758,-0.0712 7.83546,3.39121 17.14954,7.69139 9.31403,4.30012 17.02878,7.85287 17.14514,7.89649 0.11641,0.0437 0.0515,-1.14189 -0.14602,-2.63477 -0.19737,-1.4928 -1.40172,-10.97383 -2.67609,-21.07031 -1.27433,-10.0965 -2.36411,-18.57869 -2.42163,-18.84961 -0.0702,-0.32994 0.0925,-0.68057 0.49471,-1.05859 0.33017,-0.31035 8.84858,-8.04728 18.92988,-17.19335 3.19461,-2.89824 3.53092,-3.17496 5.71351,-5.1504 z m 164.42016,93.64648 c -2.98572,13.57743 -6.85048,31.23402 -7.04606,32.26758 l -0.19389,1.0332 -16.65956,7.0918 c -9.16247,3.90063 -18.23401,7.76037 -20.15923,8.57812 -1.92518,0.81774 -3.5145,1.51523 -3.53105,1.55079 -0.0165,0.0355 6.86149,4.93222 15.28448,10.88085 8.42295,5.94865 15.34933,10.87994 15.39171,10.95704 0.0421,0.077 -0.0713,0.27908 -0.25108,0.44921 -0.23697,0.224 -0.47957,0.2102 -0.87878,-0.0469 -0.5275,-0.33951 -0.53964,-0.33483 -0.32247,0.0781 0.12485,0.23708 0.16116,0.46286 0.0808,0.50196 -0.0803,0.0385 -6.87426,4.9547 -15.09649,10.92383 -10.49407,7.61845 -14.88907,10.90306 -14.74711,11.02344 0.19576,0.16599 37.24616,15.74459 39.07001,16.42773 0.49742,0.1863 0.94072,0.49734 0.98467,0.69336 0.0444,0.19587 2.02703,9.39948 4.40804,20.45117 1.40421,6.51779 2.0844,9.63007 3.10046,14.3164 a 168.01791,168.42094 45.033607 0 0 17.38915,-73.5664 168.01791,168.42094 45.033607 0 0 -16.82364,-73.61133 z m -302.34633,0.26563 a 168.01791,168.42094 45.033607 0 0 -17.26948,73.3457 168.01791,168.42094 45.033607 0 0 17.53055,74.47266 c 3.06157,-13.85392 7.39368,-33.46139 7.63993,-34.76758 0.0134,-0.0687 9.06144,-3.9851 20.10679,-8.70118 11.04536,-4.716 20.09627,-8.62458 20.11456,-8.6875 0.0183,-0.063 -5.02879,-3.67168 -11.21711,-8.01953 -15.46427,-10.865 -20.03948,-14.11301 -20.14153,-14.29882 -0.048,-0.0874 0.0804,-0.30704 0.28632,-0.48829 0.20574,-0.18122 7.05262,-5.04864 15.21537,-10.81445 8.16275,-5.76587 14.93763,-10.56204 15.05483,-10.6582 0.11719,-0.0961 -8.74729,-3.95836 -19.69818,-8.58399 -10.95084,-4.62564 -19.96041,-8.50012 -20.02039,-8.60937 -0.0599,-0.10915 -2.48112,-10.97379 -5.3816,-24.14453 -1.17384,-5.33028 -1.31512,-5.94634 -2.22006,-10.04492 z m 221.50005,151.60546 c -0.12873,0.14242 -0.62178,5.42582 -2.29734,24.64844 -0.91729,10.52333 -1.31262,13.82491 -1.64415,13.70117 -0.0462,-0.0175 -7.69269,-3.64186 -16.99048,-8.05273 -9.29772,-4.41092 -16.98237,-8.00728 -17.0785,-7.99219 -0.0963,0.015 1.04076,9.77895 2.52809,21.69727 1.48737,11.91835 2.68111,21.76079 2.65268,21.87109 -0.0283,0.11027 -8.09036,7.39369 -17.91573,16.18555 -4.03622,3.61167 -4.67022,4.19192 -7.81955,7.01562 a 168.01791,168.42094 45.033607 0 0 127.33492,-73.75389 c -3.29496,1.05236 -3.47968,1.13375 -7.56442,2.42772 -11.78579,3.73354 -22.46561,7.12768 -23.73096,7.54103 -1.2654,0.41334 -2.45269,0.70903 -2.64025,0.6582 -0.18755,-0.0509 -3.40711,-2.41233 -7.15344,-5.24806 -21.89251,-16.57141 -27.57263,-20.81898 -27.68087,-20.69922 z m -140.74568,0.64258 c -0.0545,-0.016 -2.68571,1.93002 -5.84631,4.32617 -17.24199,13.07175 -28.28956,21.41179 -28.55751,21.5586 -0.16659,0.0907 -1.03336,-0.0721 -1.92687,-0.36328 -10.23185,-3.33536 -23.24499,-7.45295 -33.01185,-10.53711 A 168.01791,168.42094 45.033607 0 0 299.00832,476.666 c -3.32806,-3.02659 -4.56958,-4.14955 -8.8713,-8.0664 l -16.67456,-15.18165 0.15207,-0.70116 c 0.0836,-0.38521 1.18606,-9.09981 2.45069,-19.36525 1.26461,-10.26543 2.43341,-19.68201 2.59701,-20.92578 l 0.29839,-2.26172 -0.58434,0.14845 c -0.32117,0.0807 -8.01667,3.59163 -17.10073,7.80273 -9.08409,4.2111 -16.56258,7.64325 -16.61984,7.62695 -0.0571,-0.0163 -0.18493,-1.18729 -0.28282,-2.60157 -0.45096,-6.51777 -2.79065,-34.88816 -2.87924,-34.91406 z" />
    <ellipse
       style="fill:none;fill-opacity:1;stroke:#ff0000;stroke-width:0.356651;stroke-miterlimit:4;stroke-dasharray:none;stroke-opacity:1"
       id="ellipse7047"
       cx="311.22955"
       cy="99.664337"
       rx="23.467695"
       ry="16.578096" />
  </g>
</svg>
